<svg xmlns="http://www.w3.org/2000/svg" fill="none" viewBox="42.44040404040404 50.42424242424242 121.85858585858585 124.8" style="max-height: 500px" width="121.85858585858585" height="124.8">
<g clip-path="url(#clip0_7_552)">
<path fill="#F3B01C" d="M119.748 148.903C137.915 146.885 155.041 137.205 164.471 121.049C160.006 161.009 116.309 186.267 80.6422 170.76C77.3556 169.334 74.5266 166.964 72.5852 163.916C64.5698 151.33 61.9349 135.315 65.7208 120.781C76.5374 139.449 98.5312 150.892 119.748 148.903Z"/>
<path fill="#8D2676" d="M65.0576 109.055C57.6939 126.072 57.375 145.996 66.4027 162.392C34.6323 138.489 34.979 87.3395 66.0144 63.6766C68.885 61.4895 72.2964 60.1914 75.8742 59.9938C90.5876 59.2178 105.537 64.9042 116.021 75.501C94.7201 75.7127 73.9743 89.3573 65.0576 109.055Z"/>
<path fill="#EE342F" d="M126.293 80.737C115.546 65.7519 98.7249 55.5502 80.295 55.2398C115.921 39.0694 159.742 65.2863 164.512 104.047C164.956 107.645 164.374 111.314 162.779 114.559C156.122 128.077 143.78 138.561 129.358 142.441C139.925 122.842 138.622 98.897 126.293 80.737Z"/>
<line stroke-width="0.5" stroke="#38383A" y2="175.678" x2="194.999" y1="175.678" x1="12.4194"/>
<line stroke-width="0.5" stroke="#38383A" y2="175.678" x2="194.999" y1="175.678" x1="12.4194"/>
<line stroke-width="0.5" stroke="#38383A" y2="50.1318" x2="194.999" y1="50.1318" x1="12.4194"/>
<line stroke-width="0.5" stroke="#38383A" y2="19.1759" x2="42.4064" y1="206.429" x1="42.4064"/>
<rect stroke-width="0.5" stroke="#38383A" height="187.202" width="182.953" y="19.0818" x="12.25"/>
<line stroke-width="0.5" stroke="#38383A" y2="19.2972" x2="164.995" y1="206.429" x1="164.995"/>
<line stroke="#6D6D70" y2="19.3682" x2="42.6563" y1="19.3682" x1="12"/>
<path fill="#6D6D70" d="M16.0564 12H14.4464V7.23C14.1864 7.48 13.7164 7.61 13.2364 7.61H12.9564V6.16H13.1464C13.9864 6.13 14.4664 5.81 14.7464 5.05H16.0564V12ZM21.271 4.4L18.451 13.17H17.051L19.871 4.4H21.271ZM26.959 9.29V10.47H25.919V12H24.329V10.47H21.129V9.38L24.139 5.05H25.919V9.29H26.959ZM24.389 9.29V7.29C24.389 6.93 24.389 6.77 24.409 6.52H24.389C24.299 6.75 24.179 6.94 23.989 7.23L22.999 8.69C22.799 8.98 22.679 9.14 22.539 9.29H24.389ZM31.5155 12H29.8655L31.6755 9.4L29.9755 7H31.7555L32.3655 8C32.4755 8.18 32.5655 8.35 32.6055 8.51H32.6255C32.6755 8.35 32.7655 8.17 32.8755 8L33.4655 7H35.1555L33.4855 9.38L35.3255 12H33.5355L32.8055 10.86C32.6755 10.66 32.5755 10.47 32.5455 10.34H32.5255C32.4855 10.46 32.3855 10.65 32.2555 10.86L31.5155 12Z"/>
</g>
<defs>
<clipPath id="clip0_7_552">
<rect transform="translate(12 2)" fill="white" height="204.533" width="183.453"/>
</clipPath>
</defs>
</svg>